<?xml version="1.0" encoding="UTF-8"?><svg xmlns="http://www.w3.org/2000/svg" viewBox="0 0 20 20"><defs><style>.cls-1{fill:none;stroke:#000;stroke-linecap:round;stroke-miterlimit:10;stroke-width:.5px;}.cls-2{opacity:.3;}</style></defs><g id="Layer_1"><path class="cls-2" d="m15.468,12.33h-3.632c-.181,0-.328-.147-.328-.328s.147-.328.328-.328h3.632c.181,0,.328.147.328.328s-.147.328-.328.328Zm2.175-1.334h-5.807c-.181,0-.328-.147-.328-.328s.147-.328.328-.328h5.807c.181,0,.328.147.328.328s-.147.328-.328.328Zm-.63-1.334h-5.197c-.162,0-.294-.147-.294-.328s.132-.328.294-.328h5.197c.162,0,.294.147.294.328s-.132.328-.294.328Zm.644-1.334h-5.808c-.181,0-.328-.147-.328-.328s.147-.328.328-.328h5.807c.181,0,.328.147.328.328s-.147.328-.328.328h0Z"/><path class="cls-2" d="m5.801,12.33h-3.632c-.181,0-.328-.147-.328-.328s.147-.328.328-.328h3.632c.181,0,.328.147.328.328s-.147.328-.328.328Zm2.175-1.334H2.169c-.181,0-.328-.147-.328-.328s.147-.328.328-.328h5.807c.181,0,.328.147.328.328s-.147.328-.328.328Zm-.63-1.334H2.149c-.162,0-.294-.147-.294-.328s.132-.328.294-.328h5.197c.162,0,.294.147.294.328s-.132.328-.294.328Zm.644-1.334H2.183c-.181,0-.328-.147-.328-.328s.147-.328.328-.328h5.807c.181,0,.328.147.328.328s-.147.328-.328.328h0Z"/></g><g id="Layer_2"><line class="cls-1" x1="10" y1="6.333" x2="10" y2="13.667"/></g></svg>