<svg xmlns="http://www.w3.org/2000/svg" viewBox="0 0 20 20"><path d="M10 17.846a.654.654 0 0 1-.654-.654V9.346a.654.654 0 0 1 1.308 0v7.846a.654.654 0 0 1-.654.654Zm.654-11.115V2.808a.654.654 0 0 0-1.308 0v3.923a.654.654 0 0 0 1.308 0Zm5.885 10.462v-1.308a.654.654 0 0 0-1.308 0v1.308a.654.654 0 0 0 1.308 0Zm0-3.923V2.808a.654.654 0 0 0-1.308 0V13.27a.654.654 0 0 0 1.308 0Zm1.962 0a.654.654 0 0 0-.654-.654h-3.923a.654.654 0 0 0 0 1.308h3.923a.654.654 0 0 0 .654-.654ZM4.77 17.193V13.27a.654.654 0 0 0-1.308 0v3.923a.654.654 0 0 0 1.308 0Zm0-6.538V2.808a.654.654 0 0 0-1.308 0v7.846a.654.654 0 0 0 1.308 0Zm1.962 0a.654.654 0 0 0-.654-.654H2.155a.654.654 0 0 0 0 1.308h3.923a.654.654 0 0 0 .654-.654Zm5.885-3.923a.654.654 0 0 0-.654-.654H8.04a.654.654 0 0 0 0 1.308h3.923a.654.654 0 0 0 .654-.654Z"/></svg>