<svg xmlns="http://www.w3.org/2000/svg" viewBox="0 0 20 20"><rect opacity=".3" x="2.25" y="2.25" width="15.5" height="15.5"/><path d="m17.671,17.998h-1.875c-.259,0-.469-.21-.469-.469s.21-.469.469-.469h1.406v-1.406c0-.259.21-.469.469-.469s.469.21.469.469v1.875c0,.259-.21.469-.469.469Z"/><path d="m14.148,17.998h-3.294c-.259,0-.469-.21-.469-.469s.21-.469.469-.469h3.294c.259,0,.469.21.469.469s-.21.469-.469.469Zm-4.942,0h-3.295c-.259,0-.469-.21-.469-.469s.21-.469.469-.469h3.295c.259,0,.469.21.469.469s-.21.469-.469.469Z"/><path d="m4.265,17.998h-1.875c-.259,0-.469-.21-.469-.469v-1.875c0-.259.21-.469.469-.469s.469.21.469.469v1.406h1.406c.259,0,.469.21.469.469s-.21.469-.469.469Z"/><path d="m2.39,14.495c-.259,0-.469-.21-.469-.469v-3.255c0-.259.21-.469.469-.469s.469.21.469.469v3.255c0,.259-.21.469-.469.469Zm0-4.883c-.259,0-.469-.21-.469-.469v-3.256c0-.259.21-.469.469-.469s.469.21.469.469v3.256c0,.259-.21.469-.469.469Z"/><path d="m2.39,4.729c-.259,0-.469-.21-.469-.469v-1.875c0-.259.21-.469.469-.469h1.875c.259,0,.469.21.469.469s-.21.469-.469.469h-1.406v1.406c0,.259-.21.469-.469.469Z"/><path d="m14.148,2.854h-3.294c-.259,0-.469-.21-.469-.469s.21-.469.469-.469h3.294c.259,0,.469.21.469.469s-.21.469-.469.469Zm-4.942,0h-3.294c-.259,0-.469-.21-.469-.469s.21-.469.469-.469h3.294c.259,0,.469.21.469.469s-.21.469-.469.469Z"/><path d="m17.671,4.729c-.259,0-.469-.21-.469-.469v-1.406h-1.406c-.259,0-.469-.21-.469-.469s.21-.469.469-.469h1.875c.259,0,.469.21.469.469v1.875c0,.259-.21.469-.469.469Z"/><path d="m17.671,14.495c-.259,0-.469-.21-.469-.469v-3.255c0-.259.21-.469.469-.469s.469.21.469.469v3.255c0,.259-.21.469-.469.469Zm0-4.883c-.259,0-.469-.21-.469-.469v-3.255c0-.259.21-.469.469-.469s.469.21.469.469v3.255c0,.259-.21.469-.469.469Z"/></svg>