<?xml version="1.0" encoding="UTF-8"?><svg id="Layer_1" xmlns="http://www.w3.org/2000/svg" viewBox="0 0 20 20"><path d="m17.47,15.246H2.511c-.345,0-.625-.28-.625-.625V5.379c0-.345.28-.625.625-.625h14.959c.345,0,.625.28.625.625v9.242c0,.345-.28.625-.625.625Zm-14.334-1.25h13.709v-7.992H3.136s0,7.992,0,7.992Zm5.164-.492h-3.933c-.345,0-.625-.28-.625-.625v-5.809c0-.345.28-.625.625-.625h3.933c.345,0,.625.28.625.625v5.809c0,.345-.28.625-.625.625Zm-3.308-1.25h2.683v-4.559h-2.683v4.559Zm8.309-1.218h-2.617c-.345,0-.625-.279-.625-.625s.28-.625.625-.625h2.617c.345,0,.625.28.625.625s-.28.625-.625.625Zm2.015-2.467h-4.632c-.345,0-.625-.28-.625-.625s.28-.625.625-.625h4.632c.345,0,.625.28.625.625s-.28.625-.625.625Z"/></svg>