<?xml version="1.0" encoding="UTF-8"?><svg id="Layer_1" xmlns="http://www.w3.org/2000/svg" viewBox="0 0 20 20"><path d="m2.511,15.246h14.959c.345,0,.625-.28.625-.625V5.379c0-.345-.28-.625-.625-.625H2.511c-.345,0-.625.28-.625.625v9.242c0,.345.28.625.625.625Zm14.334-1.25H3.136v-7.992h13.709s0,7.992,0,7.992Zm-5.164-.492h3.933c.345,0,.625-.28.625-.625v-5.809c0-.345-.28-.625-.625-.625h-3.933c-.345,0-.625.28-.625.625v5.809c0,.345.28.625.625.625Zm3.308-1.25h-2.683v-4.559h2.683v4.559Zm-8.309-1.218h2.617c.345,0,.625-.279.625-.625s-.28-.625-.625-.625h-2.617c-.345,0-.625.28-.625.625s.28.625.625.625Zm-2.015-2.467h4.632c.345,0,.625-.28.625-.625s-.28-.625-.625-.625h-4.632c-.345,0-.625.28-.625.625s.28.625.625.625Z"/></svg>