<?xml version="1.0" encoding="UTF-8"?><svg id="Layer_2" xmlns="http://www.w3.org/2000/svg" viewBox="0 0 20 20"><path d="m6.602,2.75c.138,0,.25.112.25.25v14c0,.138-.112.25-.25.25h-3.727c-.138,0-.25-.112-.25-.25V3c0-.138.112-.25.25-.25h3.727m0-.75h-3.727c-.552,0-1,.448-1,1v14c0,.552.448,1,1,1h3.727c.552,0,1-.448,1-1V3c0-.552-.448-1-1-1h0Z"/><path d="m16.975,2.75c.138,0,.25.112.25.25v14c0,.138-.112.25-.25.25h-3.727c-.138,0-.25-.112-.25-.25V3c0-.138.112-.25.25-.25h3.727m0-.75h-3.727c-.552,0-1,.448-1,1v14c0,.552.448,1,1,1h3.727c.552,0,1-.448,1-1V3c0-.552-.448-1-1-1h0Z"/></svg>