<svg xmlns="http://www.w3.org/2000/svg" viewBox="0 0 20 20"><path d="m17.509,18.125h-6.436c-.345,0-.625-.28-.625-.625V2.5c0-.345.28-.625.625-.625h6.436c.345,0,.625.28.625.625v15c0,.345-.28.625-.625.625Zm-5.811-1.25h5.186V3.125h-5.186v13.75Zm3.924-1.307h-2.662c-.345,0-.625-.28-.625-.625s.28-.625.625-.625h2.662c.345,0,.625.28.625.625s-.28.625-.625.625Zm0-2.508h-2.662c-.345,0-.625-.28-.625-.625s.28-.625.625-.625h2.662c.345,0,.625.28.625.625s-.28.625-.625.625Zm0-2.436h-2.662c-.345,0-.625-.28-.625-.625v-5.809c0-.345.28-.625.625-.625h2.662c.345,0,.625.28.625.625v5.809c0,.345-.28.625-.625.625Zm-2.037-1.25h1.412v-4.559h-1.412v4.559Z"/><path d="m8.927,18.125H2.491c-.345,0-.625-.28-.625-.625V2.5c0-.345.28-.625.625-.625h6.436c.345,0,.625.28.625.625v15c0,.345-.28.625-.625.625Zm-5.811-1.25h5.186V3.125H3.116v13.75Zm3.923-1.307h-2.662c-.345,0-.625-.28-.625-.625s.28-.625.625-.625h2.662c.345,0,.625.28.625.625s-.28.625-.625.625Zm0-2.508h-2.662c-.345,0-.625-.28-.625-.625s.28-.625.625-.625h2.662c.345,0,.625.28.625.625s-.28.625-.625.625Zm0-2.436h-2.662c-.345,0-.625-.28-.625-.625v-5.809c0-.345.28-.625.625-.625h2.662c.345,0,.625.28.625.625v5.809c0,.345-.28.625-.625.625Zm-2.037-1.25h1.412v-4.559h-1.412v4.559Z"/></svg>