<svg xmlns="http://www.w3.org/2000/svg" viewBox="0 0 20 20"><path d="M17.435 18h-1.871c-.504 0-.898-.586-.898-1.333V3.333c0-.748.394-1.333.898-1.333h1.871c.504 0 .898.586.898 1.333v13.333c0 .748-.394 1.333-.898 1.333Zm-1.721-1.333h1.571V3.333h-1.571v13.333ZM13.102 18h-1.871c-.504 0-.898-.586-.898-1.333V3.333c0-.748.394-1.333.898-1.333h1.871c.504 0 .898.586.898 1.333v13.333c0 .748-.394 1.333-.898 1.333Zm-1.721-1.333h1.571V3.333h-1.571v13.333ZM8.769 18H6.898C6.394 18 6 17.414 6 16.667V3.333C6 2.585 6.394 2 6.898 2h1.871c.504 0 .898.586.898 1.333v13.333c0 .748-.394 1.333-.898 1.333Zm-1.721-1.333h1.571V3.333H7.048v13.333ZM4.435 18H2.564c-.504 0-.898-.586-.898-1.333V3.333c0-.748.394-1.333.898-1.333h1.871c.504 0 .898.586.898 1.333v13.333c0 .748-.394 1.333-.898 1.333Zm-1.721-1.333h1.571V3.333H2.714v13.333Z"/></svg>