<svg xmlns="http://www.w3.org/2000/svg" viewBox="0 0 20 20"><path d="M16.941 18H14.56c-.641 0-1.143-.586-1.143-1.333V3.333c0-.748.502-1.333 1.143-1.333h2.381c.641 0 1.143.586 1.143 1.333v13.333c0 .748-.502 1.333-1.143 1.333Zm-2.191-1.333h2V3.333h-2v13.333ZM5.44 18H3.059c-.641 0-1.143-.586-1.143-1.333V3.333C1.916 2.585 2.418 2 3.059 2H5.44c.641 0 1.143.586 1.143 1.333v13.333c0 .748-.502 1.333-1.143 1.333Zm-2.19-1.333h2V3.333h-2v13.333ZM11.107 18H8.726c-.641 0-1.143-.586-1.143-1.333V3.333C7.583 2.585 8.085 2 8.726 2h2.381c.641 0 1.143.586 1.143 1.333v13.333c0 .748-.502 1.333-1.143 1.333Zm-2.191-1.333h2V3.333h-2v13.333Z"/></svg>