<svg xmlns="http://www.w3.org/2000/svg" viewBox="0 0 20 20"><path d="m17.5,18.125h-3.738c-.345,0-.625-.28-.625-.625V2.5c0-.345.28-.625.625-.625h3.738c.345,0,.625.28.625.625v15c0,.345-.28.625-.625.625Zm-3.113-1.25h2.488V3.125h-2.488v13.75Zm-2.518,1.25h-3.738c-.345,0-.625-.28-.625-.625V2.5c0-.345.28-.625.625-.625h3.738c.345,0,.625.28.625.625v15c0,.345-.28.625-.625.625Zm-3.113-1.25h2.488V3.125h-2.488v13.75Zm-2.518,1.25h-3.738c-.345,0-.625-.28-.625-.625V2.5c0-.345.28-.625.625-.625h3.738c.345,0,.625.28.625.625v15c0,.345-.28.625-.625.625Zm-3.113-1.25h2.488V3.125h-2.488v13.75Zm12.524-6.25c-.345,0-.625-.28-.625-.625v-5.809c0-.345.28-.625.625-.625s.625.28.625.625v5.809c0,.345-.28.625-.625.625Zm-5.631,0c-.345,0-.625-.28-.625-.625v-5.809c0-.345.28-.625.625-.625s.625.28.625.625v5.809c0,.345-.28.625-.625.625Zm-5.631,0c-.345,0-.625-.28-.625-.625v-5.809c0-.345.28-.625.625-.625s.625.28.625.625v5.809c0,.345-.28.625-.625.625Z"/><path d="m15.649,15.618c-.345,0-.65-.306-.65-.65s.305-.649.65-.649.65.305.65.649-.305.65-.65.65Zm-5.631,0c-.345,0-.65-.306-.65-.65s.305-.649.65-.649.65.305.65.649-.305.65-.65.65Zm-5.631-.025c-.345,0-.65-.305-.65-.649s.305-.65.65-.65.65.306.65.65-.305.649-.65.649Zm5.576-2.482c-.345,0-.649-.306-.649-.65s.304-.649.649-.649.65.305.65.649-.305.65-.65.65Zm-5.576,0c-.345,0-.65-.306-.65-.65s.305-.649.65-.649.65.305.65.649-.305.65-.65.65Zm11.262-.05c-.345,0-.65-.306-.65-.65s.305-.649.65-.649.65.305.65.649-.305.65-.65.65Z"/></svg>