<svg xmlns="http://www.w3.org/2000/svg" viewBox="0 0 20 20"><path d="m17.5,18.125H2.5c-.345,0-.625-.28-.625-.625V2.5c0-.345.28-.625.625-.625h15c.345,0,.625.28.625.625v15c0,.345-.28.625-.625.625Zm-14.375-1.25h13.75V3.125H3.125v13.75Zm8.262-1.307h-6.915c-.345,0-.625-.28-.625-.625s.28-.625.625-.625h6.915c.345,0,.625.28.625.625s-.28.625-.625.625Zm4.141-2.508H4.472c-.345,0-.625-.28-.625-.625s.28-.625.625-.625h11.056c.345,0,.625.28.625.625s-.28.625-.625.625Zm0-2.436H4.472c-.345,0-.625-.28-.625-.625v-5.809c0-.345.28-.625.625-.625h11.056c.345,0,.625.28.625.625v5.809c0,.345-.28.625-.625.625Zm-10.431-1.25h9.806v-4.559H5.097v4.559Z"/></svg>